<svg id="search_mag" version="1.1" xmlns="http://www.w3.org/2000/svg" xmlns:xlink="http://www.w3.org/1999/xlink" xmlns:a="http://ns.adobe.com/AdobeSVGViewerExtensions/3.0/"
x="0px" y="0px" width="24px" height="24px" viewBox="0 0 24 24" enable-background="new 0 0 24 24" xml:space="preserve">
    <path fill="#0366d6" d="M22.769,12.634a14.091,14.091,0,0,1-21.537,0,.985.985,0,0,1,0-1.268,14.091,14.091,0,0,1,21.537,0A.985.985,0,0,1,22.769,12.634Zm-19.477-1a.521.521,0,0,0,0,.744A12.391,12.391,0,0,0,8.809,15.53a5.336,5.336,0,0,1-1.7-6.47A12.439,12.439,0,0,0,3.292,11.629ZM15.505,9.818l-2.23-.324-1-2.021a.311.311,0,0,0-.558,0l-1,2.021-2.23.324a.311.311,0,0,0-.172.531l1.614,1.573-.381,2.221A.311.311,0,0,0,10,14.47L12,13.421l1.994,1.049a.311.311,0,0,0,.451-.328l-.381-2.221,1.614-1.573A.311.311,0,0,0,15.505,9.818Zm5.2,1.812a12.439,12.439,0,0,0-3.819-2.57,5.336,5.336,0,0,1-1.7,6.47A12.391,12.391,0,0,0,20.7,12.373.521.521,0,0,0,20.708,11.629Z"/>
</svg>